# xmcd
#
# Track frame offsets:
#	150
#	14448
#	27171
#	41244
#	53742
#	68940
#	82038
#	92586
#	102234
#	114582
#	136530
#	152403
#	165651
#	184074
#	196422
#
# Disc length: 2776 seconds
#
# Revision: 0
# Processed by: cddbd v1.5.2PL0 Copyright (c) Steve Scherf et al.
# Submitted via: audiograbber 1.83.01
#
DISCID=bd0ad60f
DTITLE=The Harmans - Garden In My Life
DYEAR=1900
DGENRE=Bluegrass
TTITLE0=Poison Love - The Harmans
TTITLE1=It'll Be For Her
TTITLE2=Sweet Georgia Brown
TTITLE3=Good Ole You Know Who
TTITLE4=Garden In My Life
TTITLE5=Good Morning Country Rain
TTITLE6=Gonna Be Moving
TTITLE7=Ain't The Kind  Of Woman
TTITLE8=Children Are Crying
TTITLE9=Lady
TTITLE10=She's No Angel
TTITLE11=Winging My Way Back Home
TTITLE12=Reuben's Train
TTITLE13=If I Only Could Have Your Love
TTITLE14=Chinese Breakdown
EXTD=
EXTT0=
EXTT1=
EXTT2=
EXTT3=
EXTT4=
EXTT5=
EXTT6=
EXTT7=
EXTT8=
EXTT9=
EXTT10=
EXTT11=
EXTT12=
EXTT13=
EXTT14=
PLAYORDER=
